<svg xmlns="http://www.w3.org/2000/svg" xmlns:xlink="http://www.w3.org/1999/xlink" width="500" zoomAndPan="magnify" viewBox="0 0 375 374.999991" height="500" preserveAspectRatio="xMidYMid meet" version="1.0"><defs><clipPath id="id1"><path d="M 3.453125 6.90625 L 371.703125 6.90625 L 371.703125 375 L 3.453125 375 Z M 3.453125 6.90625 " clip-rule="nonzero"/></clipPath></defs><g clip-path="url(#id1)"><path fill="rgb(67.83905%, 36.079407%, 53.729248%)" d="M 58.691406 6.90625 L 316.464844 6.90625 C 318.277344 6.90625 320.082031 6.996094 321.878906 7.175781 C 323.679688 7.351562 325.46875 7.617188 327.242188 7.96875 C 329.015625 8.324219 330.769531 8.761719 332.5 9.285156 C 334.230469 9.8125 335.933594 10.421875 337.605469 11.113281 C 339.277344 11.804688 340.910156 12.578125 342.503906 13.429688 C 344.101562 14.28125 345.652344 15.210938 347.15625 16.21875 C 348.660156 17.222656 350.109375 18.296875 351.507812 19.445312 C 352.90625 20.59375 354.246094 21.808594 355.523438 23.085938 C 356.804688 24.367188 358.019531 25.703125 359.164062 27.101562 C 360.3125 28.5 361.390625 29.953125 362.394531 31.457031 C 363.398438 32.960938 364.328125 34.511719 365.179688 36.105469 C 366.035156 37.703125 366.808594 39.335938 367.5 41.007812 C 368.191406 42.679688 368.800781 44.378906 369.324219 46.109375 C 369.851562 47.84375 370.289062 49.59375 370.640625 51.371094 C 370.996094 53.144531 371.261719 54.929688 371.4375 56.730469 C 371.617188 58.53125 371.703125 60.335938 371.703125 62.144531 L 371.703125 319.921875 C 371.703125 321.730469 371.617188 323.535156 371.4375 325.335938 C 371.261719 327.136719 370.996094 328.921875 370.640625 330.695312 C 370.289062 332.472656 369.851562 334.222656 369.324219 335.953125 C 368.800781 337.6875 368.191406 339.386719 367.5 341.058594 C 366.808594 342.730469 366.035156 344.363281 365.179688 345.960938 C 364.328125 347.554688 363.398438 349.105469 362.394531 350.609375 C 361.390625 352.113281 360.3125 353.5625 359.164062 354.960938 C 358.019531 356.359375 356.804688 357.699219 355.523438 358.980469 C 354.246094 360.257812 352.90625 361.472656 351.507812 362.621094 C 350.109375 363.765625 348.660156 364.84375 347.15625 365.847656 C 345.652344 366.855469 344.101562 367.78125 342.503906 368.636719 C 340.910156 369.488281 339.277344 370.261719 337.605469 370.953125 C 335.933594 371.644531 334.230469 372.253906 332.5 372.78125 C 330.769531 373.304688 329.015625 373.742188 327.242188 374.097656 C 325.46875 374.449219 323.679688 374.714844 321.878906 374.890625 C 320.082031 375.070312 318.277344 375.15625 316.464844 375.15625 L 58.691406 375.15625 C 56.882812 375.15625 55.078125 375.070312 53.277344 374.890625 C 51.476562 374.714844 49.691406 374.449219 47.914062 374.097656 C 46.140625 373.742188 44.386719 373.304688 42.65625 372.78125 C 40.925781 372.253906 39.222656 371.644531 37.554688 370.953125 C 35.882812 370.261719 34.25 369.488281 32.652344 368.636719 C 31.058594 367.78125 29.507812 366.855469 28.003906 365.847656 C 26.5 364.84375 25.046875 363.765625 23.648438 362.621094 C 22.25 361.472656 20.910156 360.257812 19.632812 358.980469 C 18.351562 357.699219 17.140625 356.359375 15.992188 354.960938 C 14.84375 353.5625 13.769531 352.113281 12.761719 350.609375 C 11.757812 349.105469 10.828125 347.554688 9.976562 345.960938 C 9.125 344.363281 8.351562 342.730469 7.660156 341.058594 C 6.964844 339.386719 6.359375 337.6875 5.832031 335.953125 C 5.308594 334.222656 4.867188 332.472656 4.515625 330.695312 C 4.164062 328.921875 3.898438 327.136719 3.71875 325.335938 C 3.542969 323.535156 3.453125 321.730469 3.453125 319.921875 L 3.453125 62.144531 C 3.453125 60.335938 3.542969 58.53125 3.71875 56.730469 C 3.898438 54.929688 4.164062 53.144531 4.515625 51.371094 C 4.867188 49.59375 5.308594 47.84375 5.832031 46.109375 C 6.359375 44.378906 6.964844 42.679688 7.660156 41.007812 C 8.351562 39.335938 9.125 37.703125 9.976562 36.105469 C 10.828125 34.511719 11.757812 32.960938 12.761719 31.457031 C 13.769531 29.953125 14.84375 28.5 15.992188 27.101562 C 17.140625 25.703125 18.351562 24.367188 19.632812 23.085938 C 20.910156 21.808594 22.25 20.59375 23.648438 19.445312 C 25.046875 18.296875 26.5 17.222656 28.003906 16.21875 C 29.507812 15.210938 31.058594 14.28125 32.652344 13.429688 C 34.25 12.578125 35.882812 11.804688 37.554688 11.113281 C 39.222656 10.421875 40.925781 9.8125 42.65625 9.285156 C 44.386719 8.761719 46.140625 8.324219 47.914062 7.96875 C 49.691406 7.617188 51.476562 7.351562 53.277344 7.175781 C 55.078125 6.996094 56.882812 6.90625 58.691406 6.90625 Z M 58.691406 6.90625 " fill-opacity="1" fill-rule="nonzero"/></g><path fill="rgb(95.289612%, 90.979004%, 93.328857%)" d="M 209.875 334.878906 L 209.875 119.828125 C 209.875 104.722656 214.191406 94.65625 235.046875 94.65625 L 262.378906 94.65625 L 262.378906 49.34375 C 257.34375 48.625 241.523438 47.183594 222.820312 47.183594 C 183.984375 47.183594 157.371094 70.921875 157.371094 114.792969 L 157.371094 334.878906 M 260.222656 152.195312 L 112.777344 152.195312 L 112.777344 203.980469 L 253.75 203.980469 " fill-opacity="1" fill-rule="nonzero"/></svg>