<svg xmlns="http://www.w3.org/2000/svg" xmlns:xlink="http://www.w3.org/1999/xlink" width="500" zoomAndPan="magnify" viewBox="0 0 375 374.999991" height="500" preserveAspectRatio="xMidYMid meet" version="1.0"><defs><clipPath id="id1"><path d="M 2.34375 0 L 375 0 L 375 375 L 2.34375 375 Z M 2.34375 0 " clip-rule="nonzero"/></clipPath></defs><path fill="rgb(95.289612%, 90.979004%, 93.328857%)" d="M 188.71875 22.414062 C 98.265625 22.414062 25.207031 95.453125 25.207031 185.886719 C 25.207031 217.683594 34.398438 247.25 50.054688 272.339844 L 31.914062 343.890625 L 106.960938 327.246094 C 131.066406 341.160156 158.898438 349.109375 188.71875 349.109375 C 279.171875 349.109375 352.230469 275.820312 352.230469 185.636719 C 352.230469 95.453125 279.171875 22.414062 188.71875 22.414062 Z M 188.71875 22.414062 " fill-opacity="1" fill-rule="evenodd"/><g clip-path="url(#id1)"><path fill="rgb(67.83905%, 36.079407%, 53.729248%)" d="M 320.671875 54.710938 C 285.632812 19.679688 239.164062 0.300781 189.464844 0.300781 C 87.082031 0.300781 3.835938 83.527344 3.835938 185.886719 C 3.835938 218.679688 12.285156 250.480469 28.683594 278.550781 L 2.34375 374.699219 L 100.75 348.859375 C 127.835938 363.765625 158.402344 371.46875 189.464844 371.46875 C 291.847656 371.46875 375.09375 288.242188 375.09375 185.886719 C 375.09375 136.445312 355.710938 89.738281 320.671875 54.710938 Z M 189.464844 340.164062 C 161.632812 340.164062 134.546875 332.710938 110.9375 318.550781 L 105.222656 315.320312 L 46.824219 330.722656 L 62.480469 273.832031 L 58.753906 268.117188 C 43.347656 243.523438 35.144531 215.199219 35.144531 186.132812 C 35.144531 101.167969 104.476562 31.855469 189.464844 31.855469 C 230.714844 31.855469 269.480469 48.003906 298.554688 77.070312 C 327.628906 106.136719 343.78125 144.894531 343.78125 186.132812 C 343.78125 270.851562 274.453125 340.164062 189.464844 340.164062 Z M 274.203125 224.640625 C 269.480469 222.40625 246.867188 211.226562 242.394531 209.488281 C 238.171875 207.996094 234.941406 207.25 231.957031 211.722656 C 228.976562 216.441406 220.03125 226.878906 217.296875 229.859375 C 214.5625 232.839844 211.828125 233.335938 207.355469 231.101562 C 202.632812 228.863281 187.726562 223.894531 170.082031 207.996094 C 156.414062 195.824219 146.972656 180.417969 144.238281 175.949219 C 141.503906 171.226562 143.988281 168.742188 146.226562 166.507812 C 148.214844 164.519531 150.945312 161.042969 153.183594 158.308594 C 155.417969 155.574219 156.164062 153.589844 157.90625 150.605469 C 159.394531 147.625 158.648438 144.894531 157.40625 142.410156 C 156.164062 140.171875 146.972656 117.316406 142.996094 107.875 C 139.265625 98.933594 135.292969 100.175781 132.558594 99.925781 C 129.824219 99.675781 126.84375 99.675781 123.613281 99.675781 C 120.628906 99.675781 115.410156 100.917969 111.1875 105.390625 C 106.960938 110.113281 95.035156 121.292969 95.035156 144.148438 C 95.035156 167.003906 111.683594 189.113281 113.921875 192.097656 C 116.15625 195.078125 146.722656 242.03125 193.191406 262.15625 C 204.375 266.875 212.824219 269.855469 219.53125 271.84375 C 230.714844 275.324219 240.65625 274.824219 248.855469 273.582031 C 257.800781 272.339844 276.191406 262.402344 280.167969 251.472656 C 284.144531 240.542969 284.144531 231.347656 282.898438 229.363281 C 281.90625 228.121094 278.675781 226.878906 274.203125 224.640625 Z M 274.203125 224.640625 " fill-opacity="1" fill-rule="evenodd"/></g></svg>