<svg xmlns="http://www.w3.org/2000/svg" xmlns:xlink="http://www.w3.org/1999/xlink" width="500" zoomAndPan="magnify" viewBox="0 0 375 374.999991" height="500" preserveAspectRatio="xMidYMid meet" version="1.0"><path fill="#88446a" d="M 368.007812 174.46875 L 316.527344 133.15625 C 314.617188 131.25 312.078125 130.613281 309.535156 131.25 C 306.992188 131.25 304.449219 132.519531 303.179688 135.0625 C 300 138.878906 300.636719 145.234375 304.449219 148.410156 L 341.949219 178.285156 L 77.542969 178.285156 C 72.457031 178.285156 68.007812 182.734375 68.007812 187.816406 C 68.007812 192.902344 72.457031 197.351562 77.542969 197.351562 L 341.949219 197.351562 L 304.449219 227.222656 C 300.636719 230.402344 299.363281 236.757812 303.179688 240.570312 C 305.085938 243.113281 307.628906 244.386719 310.804688 244.386719 C 312.710938 244.386719 315.253906 243.75 316.523438 242.480469 L 368.007812 201.164062 C 372.457031 197.988281 375 192.902344 375 187.816406 C 375 182.734375 372.457031 178.285156 368.007812 174.46875 Z M 368.007812 174.46875 " fill-opacity="1" fill-rule="nonzero"/><path fill="#88446a" d="M 187.5 327.011719 C 182.414062 327.011719 177.964844 331.460938 177.964844 336.546875 C 177.964844 347.351562 169.066406 356.25 158.261719 356.25 L 38.769531 356.25 C 27.964844 356.25 19.066406 347.351562 19.066406 336.546875 L 19.066406 39.089844 C 19.066406 28.285156 27.964844 19.386719 38.769531 19.386719 L 157.628906 19.386719 C 168.433594 19.386719 177.332031 28.285156 177.332031 39.089844 C 177.332031 44.171875 181.78125 48.621094 186.863281 48.621094 C 191.949219 48.621094 196.398438 44.171875 196.398438 39.089844 C 196.398438 17.480469 178.601562 0.316406 157.628906 0.316406 L 38.769531 0.316406 C 17.160156 0.316406 0 18.113281 0 39.089844 L 0 335.910156 C 0 357.519531 17.796875 374.683594 38.769531 374.683594 L 157.628906 374.683594 C 179.238281 374.683594 196.398438 356.886719 196.398438 335.910156 C 197.035156 330.828125 192.585938 327.011719 187.5 327.011719 Z M 187.5 327.011719 " fill-opacity="1" fill-rule="nonzero"/></svg>